<svg width="105" height="30" viewBox="0 0 105 30" fill="none" xmlns="http://www.w3.org/2000/svg">
<path d="M39.3984 16.3203H41.5898V29H39.5039L39.457 27.7578C39.0664 28.2188 38.5664 28.582 37.957 28.8477C37.3477 29.1055 36.6133 29.2344 35.7539 29.2344C34.5117 29.2344 33.5078 28.8672 32.7422 28.1328C31.9766 27.3984 31.5938 26.1875 31.5938 24.5V16.3203H33.7852V24.5234C33.7852 25.2891 33.8945 25.8828 34.1133 26.3047C34.3398 26.7188 34.6289 27.0078 34.9805 27.1719C35.3398 27.3281 35.7148 27.4062 36.1055 27.4062C36.9883 27.4062 37.6914 27.2422 38.2148 26.9141C38.7461 26.5781 39.1406 26.1328 39.3984 25.5781V16.3203ZM49.1484 20.9492L51.9375 16.3203H54.4922L50.3555 22.5781L54.6211 29H52.1016L49.1836 24.2305L46.2773 29H43.7227L48 22.5781L43.8516 16.3203H46.3828L49.1484 20.9492ZM55.7812 22.5312C55.7812 21.3047 56.0156 20.207 56.4844 19.2383C56.9531 18.2695 57.6172 17.5039 58.4766 16.9414C59.3359 16.3711 60.3555 16.0859 61.5352 16.0859C62.7305 16.0859 63.7617 16.3711 64.6289 16.9414C65.4961 17.5039 66.1602 18.2695 66.6211 19.2383C67.0898 20.207 67.3242 21.3047 67.3242 22.5312V22.8008C67.3242 24.0195 67.0898 25.1172 66.6211 26.0938C66.1602 27.0625 65.4961 27.8281 64.6289 28.3906C63.7695 28.9531 62.7461 29.2344 61.5586 29.2344C60.3711 29.2344 59.3438 28.9531 58.4766 28.3906C57.6172 27.8281 56.9531 27.0625 56.4844 26.0938C56.0156 25.1172 55.7812 24.0195 55.7812 22.8008V22.5312ZM57.9727 22.8008C57.9727 23.6367 58.1055 24.4102 58.3711 25.1211C58.6367 25.832 59.0312 26.4023 59.5547 26.832C60.0859 27.2617 60.7539 27.4766 61.5586 27.4766C62.3555 27.4766 63.0156 27.2617 63.5391 26.832C64.0703 26.4023 64.4688 25.832 64.7344 25.1211C65 24.4102 65.1328 23.6367 65.1328 22.8008V22.5312C65.1328 21.6953 65 20.9219 64.7344 20.2109C64.4688 19.5 64.0703 18.9297 63.5391 18.5C63.0078 18.0625 62.3398 17.8438 61.5352 17.8438C60.7461 17.8438 60.0859 18.0625 59.5547 18.5C59.0234 18.9297 58.625 19.5 58.3594 20.2109C58.1016 20.9219 57.9727 21.6953 57.9727 22.5312V22.8008ZM72.2461 29H70.0547V16.3203H72.1875L72.2344 17.7617C72.5547 17.2461 72.9609 16.8398 73.4531 16.543C73.9531 16.2383 74.5469 16.0859 75.2344 16.0859C75.3828 16.0859 75.5586 16.1055 75.7617 16.1445C75.9727 16.1758 76.1172 16.2109 76.1953 16.25V18.2539C75.8594 18.1914 75.5039 18.1602 75.1289 18.1602C74.3945 18.1602 73.7891 18.3281 73.3125 18.6641C72.8359 18.9922 72.4805 19.4375 72.2461 20V29ZM85.2891 20.3047C85.2891 19.5469 85.0625 18.9453 84.6094 18.5C84.1641 18.0469 83.5039 17.8203 82.6289 17.8203C81.8164 17.8203 81.1602 18.0234 80.6602 18.4297C80.1602 18.8359 79.9102 19.3047 79.9102 19.8359H77.7188C77.7188 19.2266 77.9258 18.6367 78.3398 18.0664C78.7539 17.4883 79.3359 17.0156 80.0859 16.6484C80.8438 16.2734 81.7344 16.0859 82.7578 16.0859C84.1406 16.0859 85.2734 16.4375 86.1562 17.1406C87.0391 17.8438 87.4805 18.9062 87.4805 20.3281V26.2344C87.4805 26.6562 87.5156 27.1055 87.5859 27.582C87.6641 28.0586 87.7773 28.4688 87.9258 28.8125V29H85.6406C85.5703 28.8438 85.5078 28.6484 85.4531 28.4141C85.4062 28.1797 85.3672 27.9336 85.3359 27.6758C84.9297 28.1055 84.4219 28.4727 83.8125 28.7773C83.2109 29.082 82.5195 29.2344 81.7383 29.2344C80.8789 29.2344 80.125 29.0703 79.4766 28.7422C78.8359 28.4062 78.3359 27.9531 77.9766 27.3828C77.625 26.8125 77.4492 26.1797 77.4492 25.4844C77.4492 24.1172 77.9648 23.082 78.9961 22.3789C80.0273 21.668 81.4141 21.3125 83.1562 21.3125H85.2891V20.3047ZM82.0547 27.3594C82.8359 27.3594 83.5117 27.1641 84.082 26.7734C84.6523 26.375 85.0547 25.9336 85.2891 25.4492V22.8359H83.5078C82.2734 22.8359 81.3203 23.0312 80.6484 23.4219C79.9766 23.8125 79.6406 24.3984 79.6406 25.1797C79.6406 25.7891 79.8438 26.3047 80.25 26.7266C80.6641 27.1484 81.2656 27.3594 82.0547 27.3594Z" fill="white"/>
<path fill-rule="evenodd" clip-rule="evenodd" d="M30 0H0V30H18V13H20.8418V28.043H30V0Z" fill="white"/>
</svg>
