<svg width="80" height="80" viewBox="0 0 80 80" fill="none" xmlns="http://www.w3.org/2000/svg">
<g clip-path="url(#clip0)">
<path d="M76.875 22.9626H73.692C73.692 17.9895 75.1135 7.03064 67.442 7.03125C59.7723 7.03186 61.192 17.9889 61.192 22.9626H58.067C58.067 17.9895 59.4885 7.03064 51.817 7.03125C44.1473 7.03186 45.567 17.9889 45.567 22.9626H3.125C1.40137 22.9626 0 24.364 0 26.0876V65.1562C0 69.4641 3.50464 72.9688 7.8125 72.9688H72.1875C76.4954 72.9688 80 69.4641 80 65.1562V26.0876C80 24.364 78.5986 22.9626 76.875 22.9626ZM64.317 14.8456C64.317 12.9047 65.5719 9.47449 68.1152 10.2832C70.0555 10.9009 70.5066 13.3728 70.567 15.105C70.6586 17.7179 70.567 20.3479 70.567 22.9626H64.317V14.8456ZM64.317 26.0876H76.875V30.7751H64.317V26.0876ZM64.317 33.9001H76.875V45.0092C74.5215 45.3583 73.0261 47.005 70.8716 47.724C68.399 48.5492 66.3696 47.6471 64.317 46.3562V33.9001ZM48.692 14.8456C48.692 12.9047 49.9469 9.47449 52.4902 10.2832C54.4305 10.9009 54.8816 13.3728 54.942 15.105C55.0336 17.7179 54.942 20.3479 54.942 22.9626H48.692V14.8456ZM48.692 26.0876H61.192V30.7751H48.692V26.0876ZM48.692 33.9001H61.192V45.08C58.7842 44.6082 56.3831 45.0385 54.2755 46.261C52.3993 47.3492 50.9802 48.2452 48.692 47.9749V33.9001ZM3.125 26.0876H45.567V30.7751H3.125V26.0876ZM3.125 40.3705C4.91516 40.7837 6.26343 42.2131 7.98584 42.8253C9.98169 43.5345 12.3615 43.5321 14.3573 42.8253C15.7886 42.3181 16.9012 41.275 18.2806 40.6879C19.5734 40.1373 22.6654 40.6293 22.3035 38.4015C21.6766 34.5374 15.069 39.2169 13.4528 39.8303C9.32556 41.3971 6.89331 37.7557 3.125 37.1967V33.9001H45.567V46.6565C42.1594 44.4452 38.1671 44.364 34.6899 46.4899C32.9791 47.5354 31.499 48.2513 29.4116 47.9608C27.6538 47.7167 26.4551 46.5582 24.9115 45.8118C23.0115 44.892 20.7739 44.6655 18.7103 45.0989C16.9263 45.473 15.6714 46.5387 14.0973 47.3395C9.72229 49.5648 7.14722 45.6055 3.125 45.0092V40.3705ZM3.125 48.183C5.81055 48.8031 7.49207 50.9204 10.4224 51.1261C13.3807 51.333 15.1965 50.1324 17.6477 48.8202C20.0555 47.5317 22.4982 47.9565 24.7327 49.3347C27.1204 50.8075 29.6265 51.5448 32.4615 50.9497C34.7833 50.4626 36.4282 48.5632 38.7207 48.1256C41.5491 47.5854 43.1427 49.1003 45.4773 50.2374C48.0194 51.4746 51.1969 51.4746 53.7384 50.2374C56.0651 49.104 57.6697 47.5861 60.4944 48.1256C63.2703 48.6554 65.0885 50.9265 68.078 51.1261C69.6704 51.2323 71.275 51.004 72.7313 50.3418C74.1522 49.696 75.3265 48.5406 76.8744 48.183V52.8235C74.2993 53.2031 72.5806 55.2637 70.105 55.7361C67.1838 56.2933 65.5511 54.6283 63.1213 53.5205C60.5475 52.3468 57.3846 52.4384 54.8767 53.736C52.4976 54.9664 50.6909 56.4374 47.8015 55.6158C45.495 54.9603 43.9282 53.1512 41.4368 52.8052C38.5144 52.3993 36.3458 53.3606 33.9288 54.7943C31.5381 56.2122 28.9886 56.098 26.6437 54.6613C24.2419 53.1897 21.9098 52.3584 19.0259 52.8589C16.261 53.3386 14.3414 55.694 11.5118 55.8246C8.2666 55.9741 6.23108 53.2837 3.125 52.8235V48.183ZM3.125 55.9967C5.81116 56.6168 7.49207 58.7335 10.4224 58.9386C13.3813 59.1455 15.1953 57.9449 17.6477 56.6339C20.0543 55.3467 22.4988 55.769 24.7327 57.1466C27.121 58.6194 29.6252 59.3567 32.4615 58.7622C34.7833 58.2758 36.4276 56.377 38.7207 55.9393C41.5491 55.3992 43.1427 56.9135 45.4773 58.0499C48.0182 59.2871 51.1975 59.2871 53.7384 58.0499C56.0651 56.9171 57.6697 55.4004 60.4944 55.9393C63.2709 56.4691 65.0885 58.739 68.078 58.9386C69.6704 59.0448 71.275 58.8171 72.7313 58.1549C74.1522 57.5092 75.3265 56.3544 76.8744 55.9967V60.6372C74.2993 61.0175 72.5806 63.0774 70.105 63.5498C67.1838 64.1077 65.5511 62.442 63.1213 61.3342C60.5475 60.1605 57.3846 60.2521 54.8767 61.5497C52.4976 62.7808 50.6909 64.2511 47.8015 63.4302C45.495 62.7747 43.9282 60.965 41.4368 60.6189C38.5144 60.213 36.3458 61.1743 33.9288 62.608C31.5381 64.0265 28.9886 63.9117 26.6437 62.475C24.2419 61.0034 21.9098 60.1721 19.0259 60.6726C16.261 61.153 14.3414 63.5077 11.5118 63.6383C8.2666 63.7885 6.23108 61.098 3.125 60.6372V55.9967ZM76.875 65.1562C76.875 67.7405 74.7717 69.8438 72.1875 69.8438H7.8125C5.22827 69.8438 3.125 67.7405 3.125 65.1562V63.811C5.81116 64.4312 7.49207 66.5472 10.4224 66.7523C13.3813 66.9592 15.1953 65.7593 17.6477 64.4476C20.0543 63.161 22.4988 63.5834 24.7327 64.9609C27.121 66.4337 29.6252 67.171 32.4615 66.5765C34.7833 66.0895 36.4276 64.1913 38.7207 63.7531C41.5491 63.2135 43.1427 64.7278 45.4773 65.8643C48.0182 67.1008 51.1975 67.1014 53.7384 65.8643C56.0651 64.7308 57.6697 63.2141 60.4944 63.7531C63.2709 64.2828 65.0885 66.5527 68.078 66.7523C69.6704 66.8585 71.275 66.6309 72.7313 65.9686C74.1522 65.3235 75.3265 64.1687 76.8744 63.811V65.1562H76.875Z" fill="#0B6354"/>
<path d="M26.2532 42.2417C24.247 42.2417 24.2421 39.1167 26.252 39.1167H26.2532C28.2595 39.1167 28.2625 42.2417 26.2532 42.2417Z" fill="#0B6354"/>
</g>
<defs>
<clipPath id="clip0">
<rect width="80" height="80" fill="white"/>
</clipPath>
</defs>
</svg>
