<svg width="80" height="80" viewBox="0 0 80 80" fill="none" xmlns="http://www.w3.org/2000/svg">
<path d="M40 56.5625C26.5594 56.5625 15.625 45.6281 15.625 32.1875C15.625 18.7469 26.5594 7.8125 40 7.8125C53.4406 7.8125 64.375 18.7469 64.375 32.1875C64.375 45.6281 53.4406 56.5625 40 56.5625ZM40 10.9375C28.2825 10.9375 18.75 20.4706 18.75 32.1875C18.75 43.9044 28.2825 53.4375 40 53.4375C51.7175 53.4375 61.25 43.9044 61.25 32.1875C61.25 20.4706 51.7175 10.9375 40 10.9375Z" fill="#0B6354"/>
<path d="M40 48.75C30.8673 48.75 23.4375 41.3202 23.4375 32.1875C23.4375 23.0548 30.8673 15.625 40 15.625C49.1327 15.625 56.5625 23.0548 56.5625 32.1875C56.5625 41.3202 49.1327 48.75 40 48.75ZM40 18.75C32.5903 18.75 26.5625 24.7778 26.5625 32.1875C26.5625 39.5972 32.5903 45.625 40 45.625C47.4097 45.625 53.4375 39.5972 53.4375 32.1875C53.4375 24.7778 47.4097 18.75 40 18.75Z" fill="#0B6354"/>
<path d="M41.5625 23.5938H35.3125C34.4501 23.5938 33.75 24.2938 33.75 25.1562V39.2188C33.75 40.0812 34.4501 40.7812 35.3125 40.7812C36.1749 40.7812 36.875 40.0812 36.875 39.2188V33.75H41.5625C44.1467 33.75 46.25 31.6467 46.25 29.0625V28.2812C46.25 25.697 44.1467 23.5938 41.5625 23.5938ZM43.125 29.0625C43.125 29.9237 42.4237 30.625 41.5625 30.625H36.875V26.7188H41.5625C42.4237 26.7188 43.125 27.42 43.125 28.2812V29.0625Z" fill="#0B6354"/>
<path d="M40 0C22.2516 0 7.8125 14.4672 7.8125 32.2498C7.8125 48.5529 26.2061 66.8909 37.1967 77.8467C37.7893 78.4357 38.3563 79.0015 38.894 79.5404C38.9655 79.6124 39.0424 79.6765 39.1266 79.7327C39.1467 79.7467 39.1687 79.7607 39.1907 79.7736C39.2767 79.8267 39.3671 79.8706 39.4623 79.9048C39.4873 79.9139 39.5111 79.9219 39.5361 79.9298C39.6826 79.975 39.8376 80 40 80C40.1624 80 40.3174 79.975 40.4639 79.9298C40.4889 79.9219 40.5127 79.9139 40.5377 79.9048C40.6329 79.8706 40.7233 79.8267 40.8093 79.7736C40.8313 79.7607 40.8533 79.7467 40.8734 79.7327C40.9576 79.6765 41.0345 79.6124 41.106 79.5404C41.8079 78.8391 42.558 78.0939 43.3472 77.3096C54.1345 66.5997 72.1875 48.6768 72.1875 32.2498C72.1875 14.4672 57.7484 0 40 0ZM41.5625 74.6783V67.6343C41.5625 66.7719 40.8624 66.0718 40 66.0718C39.1376 66.0718 38.4375 66.7719 38.4375 67.6343V74.6716C33.2953 69.5374 26.6125 62.7643 21.1188 55.4706C14.3628 46.4984 10.9375 38.6859 10.9375 32.2498C10.9375 16.1908 23.9752 3.125 40 3.125C56.0248 3.125 69.0625 16.1908 69.0625 32.2498C69.0625 47.1753 52.0453 64.267 41.5625 74.6783Z" fill="#0B6354"/>
<path d="M40.0031 62.8125C39.14 62.8125 38.4399 62.113 38.4399 61.25C38.4399 60.387 39.1388 59.6875 40.0018 59.6875H40.0031C40.8661 59.6875 41.5656 60.387 41.5656 61.25C41.5656 62.113 40.8661 62.8125 40.0031 62.8125Z" fill="#0B6354"/>
</svg>
