<svg width="80" height="80" viewBox="0 0 80 80" fill="none" xmlns="http://www.w3.org/2000/svg">
<g clip-path="url(#clip0)">
<path d="M6.62498 32.1008C6.21055 32.1008 5.81139 31.9366 5.51842 31.6437L0.858382 26.9843C0.295028 26.4209 -0.00953787 25.672 0.000227757 24.8755C0.0106037 24.082 0.332259 23.3441 0.9066 22.7985C11.4962 12.7313 25.3799 7.1875 40.0002 7.1875C54.6206 7.1875 68.5043 12.7313 79.0939 22.7985C79.6682 23.3441 79.9899 24.0814 80.0002 24.8755C80.01 25.6726 79.7048 26.4215 79.1415 26.9849L75.4305 30.6927C74.3026 31.8195 72.51 31.842 71.3479 30.7452C62.842 22.7081 51.7092 18.2819 40.0002 18.2819C27.8103 18.2819 16.3497 23.0273 7.72911 31.6437C7.43614 31.9366 7.0388 32.1008 6.62498 32.1008ZM3.2119 24.9188L6.64146 28.3472C15.7131 19.8291 27.4972 15.1569 40.0002 15.1569C52.4477 15.1569 64.2873 19.8401 73.3578 28.3453L76.7879 24.9182C66.8008 15.4974 53.7453 10.3125 40.0002 10.3125C26.2551 10.3125 13.1991 15.498 3.2119 24.9188Z" fill="#0B6354"/>
<path d="M62.0774 42.8316C61.3712 42.8316 60.6638 42.5752 60.1035 42.0595C55.8775 38.1691 50.6651 35.6056 45.0297 34.6449C44.1795 34.5003 43.607 33.6928 43.7522 32.8419C43.8975 31.9917 44.7019 31.418 45.5552 31.5645C51.721 32.6155 57.4284 35.4017 62.0737 39.626L65.5051 36.1964C58.5343 29.7816 49.4846 26.252 39.9998 26.252C30.5143 26.252 21.4652 29.7816 14.4944 36.1964L17.9258 39.626C21.9938 35.9273 26.9498 33.296 32.2697 32.0118C33.1095 31.8092 33.9524 32.3256 34.155 33.1642C34.3577 34.0028 33.8413 34.8469 33.0027 35.0496C28.1339 36.2245 23.6015 38.6488 19.896 42.0595C18.7406 43.1227 16.9639 43.083 15.8512 41.971L12.1397 38.2606C11.5726 37.6942 11.2681 36.941 11.2827 36.1397C11.2968 35.348 11.638 34.5845 12.2184 34.0443C19.7892 27.0039 29.6555 23.127 39.9998 23.127C50.344 23.127 60.2103 27.0039 67.7811 34.0443C68.3616 34.5845 68.7022 35.348 68.7168 36.1397C68.7309 36.941 68.4269 37.6942 67.8599 38.2606L64.1483 41.9704C63.5752 42.5429 62.8269 42.8316 62.0774 42.8316Z" fill="#0B6354"/>
<path d="M50.7923 54.1246C50.1203 54.1246 49.4446 53.8903 48.888 53.4178C46.4118 51.317 43.2551 50.1598 40 50.1598C36.745 50.1598 33.5889 51.317 31.1127 53.4178C29.9378 54.4139 28.2367 54.3499 27.1552 53.2689L23.4278 49.5433C22.8577 48.9733 22.5452 48.1847 22.5702 47.379C22.5947 46.5789 22.9517 45.8165 23.5505 45.288C28.0915 41.2755 33.9338 39.0654 40 39.0654C46.0663 39.0654 51.9086 41.2755 56.4502 45.2886C57.0484 45.8165 57.406 46.5789 57.4305 47.379C57.4549 48.1847 57.1424 48.9733 56.5723 49.5433L52.8449 53.2689C52.2767 53.8372 51.5369 54.1246 50.7923 54.1246ZM40 47.0348C43.9356 47.0348 47.7546 48.4136 50.774 50.9209L54.2127 47.4834C50.2674 44.0679 45.2295 42.1904 40 42.1904C34.7712 42.1904 29.7327 44.0685 25.7874 47.4834L29.2267 50.9209C32.2455 48.4136 36.0645 47.0348 40 47.0348Z" fill="#0B6354"/>
<path d="M40.0083 72.8126C35.0974 72.8126 31.1021 68.8185 31.1021 63.9088C31.1021 61.5315 32.028 59.2958 33.7095 57.6124C35.3922 55.9303 37.6285 55.0044 40.0083 55.0044C42.3856 55.0044 44.6219 55.9303 46.3053 57.6112C47.9886 59.2958 48.9146 61.5321 48.9146 63.9088C48.9146 68.8185 44.9192 72.8126 40.0083 72.8126ZM40.0083 58.1294C38.4629 58.1294 37.0109 58.7306 35.9196 59.8219C34.8282 60.9144 34.2271 62.3658 34.2271 63.9088C34.2271 67.0948 36.8204 69.6876 40.0083 69.6876C43.1962 69.6876 45.7896 67.0948 45.7896 63.9088C45.7896 62.3658 45.1877 60.9138 44.0958 59.8213C43.0039 58.7306 41.5519 58.1294 40.0083 58.1294Z" fill="#0B6354"/>
<path d="M39.0461 34.2114C38.1831 34.2114 37.4824 33.512 37.4824 32.6489C37.4824 31.7859 38.1819 31.0864 39.0443 31.0864H39.0461C39.9092 31.0864 40.6086 31.7859 40.6086 32.6489C40.6086 33.512 39.9092 34.2114 39.0461 34.2114Z" fill="#0B6354"/>
</g>
<defs>
<clipPath id="clip0">
<rect width="80" height="80" fill="white"/>
</clipPath>
</defs>
</svg>
