<svg width="80" height="80" viewBox="0 0 80 80" fill="none" xmlns="http://www.w3.org/2000/svg">
<g clip-path="url(#clip0)">
<path d="M40.0031 61.1621C39.14 61.1621 38.4399 60.4626 38.4399 59.5996C38.4399 58.7366 39.1388 58.0371 40.0018 58.0371H40.0031C40.8661 58.0371 41.5656 58.7366 41.5656 59.5996C41.5656 60.4626 40.8661 61.1621 40.0031 61.1621Z" fill="#0B6354"/>
<path d="M70 55.7452C68.5889 53.9954 66.6528 52.7393 64.4031 52.1094L64.0564 52.0123C59.7748 50.8142 55.3735 49.9329 50.9375 49.389V39.6924C50.9375 39.2279 50.7312 38.7891 50.3748 38.4924C50.1453 38.3002 49.8669 38.1812 49.5764 38.1439C51.8701 35.7562 53.2812 32.5159 53.2812 28.9532V4.6875C53.2812 2.10327 51.178 0 48.5938 0H31.4062C28.822 0 26.7188 2.10327 26.7188 4.6875V28.9532C26.7188 32.5171 28.1299 35.7581 30.4218 38.1451C30.1331 38.1812 29.856 38.3002 29.6265 38.4906C29.2688 38.7872 29.0625 39.2279 29.0625 39.6924V49.3799C24.5251 49.9329 20.0232 50.8392 15.6409 52.0764L15.567 52.0984C10.9283 53.4094 7.8125 57.3218 7.8125 61.8329V78.4375C7.8125 79.2999 8.51257 80 9.375 80H70.625C71.4874 80 72.1875 79.2999 72.1875 78.4375V61.8518C72.1875 59.6313 71.4313 57.5201 70 55.7452C71.4313 57.5201 68.5889 53.9954 70 55.7452ZM50.1562 19.1217C45.3955 18.8141 40.6628 16.7743 38.1781 12.511H50.1562V19.1217ZM29.8438 4.6875C29.8438 3.82629 30.545 3.125 31.4062 3.125H48.5938C49.455 3.125 50.1562 3.82629 50.1562 4.6875V9.38599H29.8438V4.6875ZM29.8438 12.511H33.3545C32.5122 14.1064 31.2659 15.9766 29.8438 16.8451V12.511ZM29.8438 28.9532V20.2393C32.5702 19.4641 34.4696 16.9147 35.7935 14.5654C36.1493 15.6323 37.5128 16.8414 38.2874 17.5659C39.3671 18.5742 40.5896 19.4257 41.9 20.1062C44.4501 21.4307 47.2986 22.0868 50.1562 22.2516V28.9532C50.1562 34.5502 45.6018 39.1064 39.9969 39.1095C34.3982 39.1077 29.8438 34.5514 29.8438 28.9532ZM47.8125 41.5686V49.1675L39.92 50.6189L32.1875 49.1718V41.5747C34.5502 42.0062 37.2467 42.2345 40.0049 42.2345H40.025C42.7563 42.2327 45.4388 42.0044 47.7893 41.5735L47.8125 41.5686ZM69.0625 76.875H41.5625V65.8575C41.5625 64.9939 40.8624 64.295 40 64.295C39.1376 64.295 38.4375 64.9939 38.4375 65.8575V76.875H10.9375V61.8329C10.9375 58.736 13.139 56.0327 16.4203 55.105L16.4935 55.083C21.4154 53.692 26.5015 52.7374 31.6138 52.2437L39.6295 53.7439C39.6765 53.7518 39.7235 53.7592 39.7717 53.764C39.8206 53.7671 39.8688 53.7701 39.917 53.7701C40.0122 53.7701 40.1062 53.7622 40.2002 53.7439L48.3472 52.2467C53.3716 52.7325 58.3716 53.667 63.2141 55.022L63.5608 55.119C66.8518 56.0388 69.0625 58.7439 69.0625 61.8518V76.875Z" fill="#0B6354"/>
<path d="M40 35.976C36.554 35.976 33.75 33.5913 33.75 30.6592C33.75 29.7968 34.4495 29.0967 35.3125 29.0967C36.1755 29.0967 36.875 29.7968 36.875 30.6592C36.875 31.8475 38.3063 32.851 40 32.851C41.6937 32.851 43.125 31.8475 43.125 30.6592C43.125 29.7968 43.8245 29.0967 44.6875 29.0967C45.5505 29.0967 46.25 29.7968 46.25 30.6592C46.25 33.5913 43.446 35.976 40 35.976Z" fill="#0B6354"/>
</g>
<defs>
<clipPath id="clip0">
<rect width="80" height="80" fill="white"/>
</clipPath>
</defs>
</svg>
