<svg width="80" height="80" viewBox="0 0 80 80" fill="none" xmlns="http://www.w3.org/2000/svg">
<path d="M40 80C29.3158 80 19.2706 75.8392 11.7157 68.2843C4.16077 60.7294 0 50.6842 0 40C0 29.3158 4.16077 19.2706 11.7157 11.7157C19.2706 4.16077 29.3158 0 40 0C50.6842 0 60.7294 4.16077 68.2843 11.7157C75.8392 19.2706 80 29.3158 80 40C80 50.6842 75.8392 60.7294 68.2843 68.2843C60.7294 75.8392 50.6842 80 40 80ZM40 3.125C30.1501 3.125 20.8899 6.96045 13.9252 13.9252C6.96045 20.8899 3.125 30.1501 3.125 40C3.125 49.8499 6.96045 59.1101 13.9252 66.0748C20.8899 73.0396 30.1501 76.875 40 76.875C49.8499 76.875 59.1101 73.0396 66.0748 66.0748C73.0396 59.1101 76.875 49.8499 76.875 40C76.875 30.1501 73.0396 20.8899 66.0748 13.9252C59.1101 6.96045 49.8499 3.125 40 3.125Z" fill="#0B6354"/>
<path d="M40 72.1875C22.2516 72.1875 7.8125 57.7484 7.8125 40C7.8125 22.2516 22.2516 7.8125 40 7.8125C57.7484 7.8125 72.1875 22.2516 72.1875 40C72.1875 57.7484 57.7484 72.1875 40 72.1875ZM40 10.9375C23.9746 10.9375 10.9375 23.9746 10.9375 40C10.9375 56.0254 23.9746 69.0625 40 69.0625C56.0254 69.0625 69.0625 56.0254 69.0625 40C69.0625 23.9746 56.0254 10.9375 40 10.9375Z" fill="#0B6354"/>
<path d="M36.5173 55.3358H22.8125C21.9495 55.3358 21.25 54.6357 21.25 53.7733V40.0685C21.25 39.2054 21.9495 38.506 22.8125 38.506H34.9548V27.9268H22.8125C21.9495 27.9268 21.25 27.2267 21.25 26.3643C21.25 25.5012 21.9495 24.8018 22.8125 24.8018H36.5173C37.3798 24.8018 38.0798 25.5012 38.0798 26.3643V40.0685C38.0798 40.9315 37.3798 41.631 36.5173 41.631H24.375V52.2108H36.5173C37.3798 52.2108 38.0798 52.9103 38.0798 53.7733C38.0798 54.6357 37.3798 55.3358 36.5173 55.3358Z" fill="#0B6354"/>
<path d="M57.1873 55.1984C56.3242 55.1984 55.6248 54.4989 55.6248 53.6359V41.4941H43.4824C42.62 41.4941 41.9199 40.7947 41.9199 39.9316V26.2268C41.9199 25.3644 42.62 24.6643 43.4824 24.6643C44.3455 24.6643 45.0449 25.3644 45.0449 26.2268V38.3691H55.6248V26.2268C55.6248 25.3644 56.3242 24.6643 57.1873 24.6643C58.0503 24.6643 58.7498 25.3644 58.7498 26.2268V53.6359C58.7498 54.4989 58.0503 55.1984 57.1873 55.1984Z" fill="#0B6354"/>
<path d="M40.0031 65.3125C39.14 65.3125 38.4399 64.613 38.4399 63.75C38.4399 62.887 39.1388 62.1875 40.0018 62.1875H40.0031C40.8661 62.1875 41.5656 62.887 41.5656 63.75C41.5656 64.613 40.8661 65.3125 40.0031 65.3125Z" fill="#0B6354"/>
<path d="M40.0031 17.3438C39.14 17.3438 38.4399 16.6443 38.4399 15.7812C38.4399 14.9182 39.1388 14.2188 40.0018 14.2188H40.0031C40.8661 14.2188 41.5656 14.9182 41.5656 15.7812C41.5656 16.6443 40.8661 17.3438 40.0031 17.3438Z" fill="#0B6354"/>
<path d="M64.6906 41.5625C63.8275 41.5625 63.1274 40.863 63.1274 40C63.1274 39.137 63.8263 38.4375 64.6893 38.4375H64.6906C65.5536 38.4375 66.2531 39.137 66.2531 40C66.2531 40.863 65.5536 41.5625 64.6906 41.5625Z" fill="#0B6354"/>
<path d="M15.4718 41.5625C14.6088 41.5625 13.9087 40.863 13.9087 40C13.9087 39.137 14.6075 38.4375 15.4706 38.4375H15.4718C16.3348 38.4375 17.0343 39.137 17.0343 40C17.0343 40.863 16.3348 41.5625 15.4718 41.5625Z" fill="#0B6354"/>
</svg>
