<svg width="80" height="80" viewBox="0 0 80 80" fill="none" xmlns="http://www.w3.org/2000/svg">
<g clip-path="url(#clip0)">
<path d="M75.3125 32.1875H73.75V25.1562C73.75 21.7096 70.9454 18.9062 67.5 18.9062C66.2952 18.9062 65.1685 19.2487 64.2139 19.8419C63.5748 17.0703 61.0858 15 58.125 15H58.1232C54.6783 15 51.8732 17.8033 51.8732 21.25V32.1875H28.1268V21.25C28.1268 17.8033 25.3217 15 21.875 15C18.9142 15 16.4252 17.0703 15.7861 19.8419C14.8315 19.2487 13.7048 18.9062 12.5 18.9062C9.05457 18.9062 6.25 21.7096 6.25 25.1562V32.1875H4.6875C2.10327 32.1875 0 34.2908 0 36.875V43.125C0 45.7092 2.10327 47.8125 4.6875 47.8125H6.25V54.8438C6.25 58.2904 9.05457 61.0938 12.5 61.0938C13.7048 61.0938 14.8315 60.7513 15.7861 60.1581C16.4252 62.9297 18.9142 65 21.875 65H21.8768C25.3217 65 28.1268 62.1967 28.1268 58.75V47.8125H51.8732V58.75C51.8732 62.1967 54.6783 65 58.125 65C61.0858 65 63.5748 62.9297 64.2139 60.1581C65.1685 60.7513 66.2952 61.0938 67.5 61.0938C70.9454 61.0938 73.75 58.2904 73.75 54.8438V47.8125H75.3125C77.8967 47.8125 80 45.7092 80 43.125V36.875C80 34.2908 77.8967 32.1875 75.3125 32.1875ZM6.25 44.6875H4.6875C3.82629 44.6875 3.125 43.9862 3.125 43.125V36.875C3.125 36.0138 3.82629 35.3125 4.6875 35.3125H6.25V44.6875ZM15.625 54.8438C15.625 55.7062 15.2753 56.4874 14.7095 57.0532C14.1437 57.619 13.3624 57.9688 12.5 57.9688C10.7764 57.9688 9.375 56.5674 9.375 54.8438V25.1562C9.375 23.4326 10.7764 22.0312 12.5 22.0312C14.2236 22.0312 15.625 23.4326 15.625 25.1562V54.8438ZM25.0018 58.75C25.0018 60.4736 23.5986 61.875 21.8768 61.875H21.875C20.1532 61.875 18.75 60.4736 18.75 58.75V21.25C18.75 19.5264 20.1532 18.125 21.8768 18.125C23.5986 18.125 25.0018 19.5264 25.0018 21.25V58.75ZM51.864 38.4375H40.9375C40.0751 38.4375 39.375 39.1376 39.375 40C39.375 40.8624 40.0751 41.5625 40.9375 41.5625H51.864V44.6875H28.1189V35.3125H51.864V38.4375ZM61.25 58.75C61.25 60.4736 59.8468 61.875 58.1232 61.875C56.4014 61.875 54.9982 60.4736 54.9982 58.75V40.08C54.9969 40.1141 54.9939 40.1483 54.989 40.1813V39.8187C54.9939 39.8517 54.9969 39.8859 54.9982 39.92V21.25C54.9982 19.5264 56.4014 18.125 58.1232 18.125H58.125C59.8468 18.125 61.25 19.5264 61.25 21.25V58.75ZM70.625 54.8438C70.625 56.5674 69.2236 57.9688 67.5 57.9688C65.7764 57.9688 64.375 56.5674 64.375 54.8438V25.1562C64.375 23.4326 65.7764 22.0312 67.5 22.0312C69.2236 22.0312 70.625 23.4326 70.625 25.1562V54.8438ZM76.875 43.125C76.875 43.9862 76.1737 44.6875 75.3125 44.6875H73.75V35.3125H75.3125C76.1737 35.3125 76.875 36.0138 76.875 36.875V43.125Z" fill="#0B6354"/>
<path d="M34.6906 41.5625C33.8275 41.5625 33.1274 40.863 33.1274 40C33.1274 39.137 33.8263 38.4375 34.6893 38.4375H34.6906C35.5536 38.4375 36.2531 39.137 36.2531 40C36.2531 40.863 35.5536 41.5625 34.6906 41.5625Z" fill="#0B6354"/>
</g>
<defs>
<clipPath id="clip0">
<rect width="80" height="80" fill="white"/>
</clipPath>
</defs>
</svg>
