<svg width="80" height="80" viewBox="0 0 80 80" fill="none" xmlns="http://www.w3.org/2000/svg">
<path d="M40 80C29.3158 80 19.2706 75.8392 11.7157 68.2843C4.16077 60.7294 0 50.6842 0 40C0 29.3158 4.16077 19.2706 11.7157 11.7157C19.2706 4.16077 29.3158 0 40 0C50.6842 0 60.7294 4.16077 68.2843 11.7157C75.8392 19.2706 80 29.3158 80 40C80 50.6842 75.8392 60.7294 68.2843 68.2843C60.7294 75.8392 50.6842 80 40 80ZM40 3.125C30.1501 3.125 20.8899 6.96045 13.9252 13.9252C6.96045 20.8899 3.125 30.1501 3.125 40C3.125 49.8499 6.96045 59.1101 13.9252 66.0748C20.8899 73.0396 30.1501 76.875 40 76.875C49.8499 76.875 59.1101 73.0396 66.0748 66.0748C73.0396 59.1101 76.875 49.8499 76.875 40C76.875 30.1501 73.0396 20.8899 66.0748 13.9252C59.1101 6.96045 49.8499 3.125 40 3.125Z" fill="#0B6354"/>
<path d="M40 72.1875C22.2516 72.1875 7.8125 57.7484 7.8125 40C7.8125 22.2516 22.2516 7.8125 40 7.8125C57.7484 7.8125 72.1875 22.2516 72.1875 40C72.1875 57.7484 57.7484 72.1875 40 72.1875ZM40 10.9375C23.9746 10.9375 10.9375 23.9746 10.9375 40C10.9375 56.0254 23.9746 69.0625 40 69.0625C56.0254 69.0625 69.0625 56.0254 69.0625 40C69.0625 23.9746 56.0254 10.9375 40 10.9375Z" fill="#0B6354"/>
<path d="M35 22.0312C34.1376 22.0312 33.4375 22.7313 33.4375 23.5938V34.5312C33.4375 35.3925 32.7362 36.0938 31.875 36.0938H30.3125V30.625C30.3125 29.7626 29.6124 29.0625 28.75 29.0625C27.8876 29.0625 27.1875 29.7626 27.1875 30.625V36.0938H25.625C24.7638 36.0938 24.0625 35.3925 24.0625 34.5312V23.5938C24.0625 22.7313 23.3624 22.0312 22.5 22.0312C21.6376 22.0312 20.9375 22.7313 20.9375 23.5938V34.5312C20.9375 37.1155 23.0408 39.2188 25.625 39.2188H27.1875V40.7812H25.625C24.7626 40.7812 24.0625 41.4813 24.0625 42.3438V53.2812C24.0625 55.8655 26.1658 57.9688 28.75 57.9688C31.3342 57.9688 33.4375 55.8655 33.4375 53.2812V42.3438C33.4375 41.4813 32.7374 40.7812 31.875 40.7812H30.3125V39.2188H31.875C34.4592 39.2188 36.5625 37.1155 36.5625 34.5312V23.5938C36.5625 22.7313 35.8624 22.0312 35 22.0312ZM30.3125 53.2812C30.3125 54.1425 29.6112 54.8438 28.75 54.8438C27.8888 54.8438 27.1875 54.1425 27.1875 53.2812V43.9062H30.3125V53.2812Z" fill="#0B6354"/>
<path d="M54.0625 22.0312H50.9375C46.6296 22.0312 43.125 25.5359 43.125 29.8438V42.3438C43.125 43.2062 43.8251 43.9062 44.6875 43.9062H46.25V53.2812C46.25 55.8655 48.3533 57.9688 50.9375 57.9688C53.5217 57.9688 55.625 55.8655 55.625 53.2812V23.5938C55.625 22.7313 54.9249 22.0312 54.0625 22.0312ZM46.25 29.8438C46.25 27.2595 48.3533 25.1562 50.9375 25.1562H52.5V40.7812H46.25V29.8438ZM52.5 53.2812C52.5 54.1425 51.7987 54.8438 50.9375 54.8438C50.0763 54.8438 49.375 54.1425 49.375 53.2812V43.9062H52.5V53.2812Z" fill="#0B6354"/>
<path d="M28.7531 26.0938C27.89 26.0938 27.1899 25.3943 27.1899 24.5312C27.1899 23.6682 27.8888 22.9688 28.7518 22.9688H28.7531C29.6161 22.9688 30.3156 23.6682 30.3156 24.5312C30.3156 25.3943 29.6161 26.0938 28.7531 26.0938Z" fill="#0B6354"/>
</svg>
