<svg width="80" height="80" viewBox="0 0 80 80" fill="none" xmlns="http://www.w3.org/2000/svg">
<path d="M59.6906 44.8438C58.8275 44.8438 58.1274 44.1443 58.1274 43.2812C58.1274 42.4182 58.8263 41.7188 59.6893 41.7188H59.6906C60.5536 41.7188 61.2531 42.4182 61.2531 43.2812C61.2531 44.1443 60.5536 44.8438 59.6906 44.8438Z" fill="#0B6354"/>
<path d="M43.1281 8.75C42.265 8.75 41.5649 8.05054 41.5649 7.1875C41.5649 6.32446 42.2638 5.625 43.1268 5.625H43.1281C43.9911 5.625 44.6906 6.32446 44.6906 7.1875C44.6906 8.05054 43.9911 8.75 43.1281 8.75Z" fill="#0B6354"/>
<path d="M69.0625 30.625H62.6514C63.6359 29.317 64.2188 27.6935 64.2188 25.9375C64.2188 25.0751 63.5187 24.375 62.6562 24.375H60.2405C59.4501 15.6281 52.0752 8.75 43.125 8.75C34.1748 8.75 26.7999 15.6281 26.0095 24.375H23.5938C22.7313 24.375 22.0312 25.0751 22.0312 25.9375C22.0312 27.6935 22.6141 29.317 23.5986 30.625H17.1875C14.1296 30.625 11.3623 31.886 9.375 33.9142V32.1875C9.375 30.9875 8.92212 29.892 8.1781 29.0625C8.92212 28.233 9.375 27.1375 9.375 25.9375C9.375 23.3533 7.27173 21.25 4.6875 21.25C2.10327 21.25 0 23.3533 0 25.9375C0 27.1375 0.452881 28.233 1.1969 29.0625C0.452881 29.892 0 30.9875 0 32.1875V61.875C0 63.5986 1.40137 65 3.125 65H9.2749C8.74207 65.9204 8.4375 66.9873 8.4375 68.125C8.4375 71.5717 11.2408 74.375 14.6875 74.375C18.1342 74.375 20.9375 71.5717 20.9375 68.125C20.9375 66.9873 20.6329 65.9204 20.1001 65H59.8999C59.3671 65.9204 59.0625 66.9873 59.0625 68.125C59.0625 71.5717 61.8658 74.375 65.3125 74.375C68.7592 74.375 71.5625 71.5717 71.5625 68.125C71.5625 66.9873 71.2579 65.9204 70.7251 65H76.875C78.5986 65 80 63.5986 80 61.875V41.5625C80 35.531 75.094 30.625 69.0625 30.625ZM6.25 61.875H3.125V32.1875C3.125 31.3263 3.82629 30.625 4.6875 30.625C5.54871 30.625 6.25 31.3263 6.25 32.1875V61.875ZM4.6875 27.5C3.82629 27.5 3.125 26.7987 3.125 25.9375C3.125 25.0763 3.82629 24.375 4.6875 24.375C5.54871 24.375 6.25 25.0763 6.25 25.9375C6.25 26.7987 5.54871 27.5 4.6875 27.5ZM43.125 11.875C50.3516 11.875 56.322 17.3529 57.1002 24.375H29.1498C29.928 17.3529 35.8984 11.875 43.125 11.875ZM60.8264 27.5C60.1813 29.3188 58.4436 30.625 56.4062 30.625H29.8438C27.8064 30.625 26.0687 29.3188 25.4236 27.5H60.8264ZM14.6875 71.25C12.9639 71.25 11.5625 69.8486 11.5625 68.125C11.5625 66.4014 12.9639 65 14.6875 65C16.4111 65 17.8125 66.4014 17.8125 68.125C17.8125 69.8486 16.4111 71.25 14.6875 71.25ZM65.3125 71.25C63.5889 71.25 62.1875 69.8486 62.1875 68.125C62.1875 66.4014 63.5889 65 65.3125 65C67.0361 65 68.4375 66.4014 68.4375 68.125C68.4375 69.8486 67.0361 71.25 65.3125 71.25ZM76.875 61.875H9.375V52.3047C10.6635 52.5195 11.7712 53.1177 12.8595 53.8171C14.4189 54.8108 16.1859 55.9375 19.5825 55.9375C22.981 55.9375 24.7485 54.8108 26.308 53.8171C27.6813 52.9419 28.8672 52.1875 31.3531 52.1875C33.8403 52.1875 35.0269 52.9437 36.4001 53.8171C37.9596 54.8108 39.7266 55.9375 43.1232 55.9375C46.5216 55.9375 48.2892 54.8108 49.8486 53.8171C51.2219 52.9419 52.4078 52.1875 54.895 52.1875C57.381 52.1875 58.5669 52.9419 59.9408 53.8171C61.5002 54.8108 63.2672 55.9375 66.6656 55.9375C70.0641 55.9375 71.8311 54.8108 73.3905 53.8171C74.4861 53.1262 75.5841 52.5201 76.875 52.3047V61.875ZM76.875 41.7188H65.9375C65.0751 41.7188 64.375 42.4188 64.375 43.2812C64.375 44.1437 65.0751 44.8438 65.9375 44.8438H76.875V49.1498C75.2197 49.3439 73.7299 49.9463 72.3108 50.8063C72.3096 50.8063 72.3077 50.8063 72.3077 50.8063C72.1088 50.9314 71.9104 51.0565 71.7126 51.1829C70.3394 52.0581 69.1528 52.8125 66.6656 52.8125C64.1779 52.8125 62.9919 52.0563 61.6187 51.1829C60.0592 50.1892 58.2922 49.0625 54.895 49.0625C51.4966 49.0625 49.7296 50.1892 48.1702 51.1829C46.7969 52.0581 45.611 52.8125 43.1232 52.8125C40.6372 52.8125 39.4513 52.0581 38.078 51.1829C36.5186 50.1892 34.7516 49.0625 31.3531 49.0625C27.9565 49.0625 26.189 50.1892 24.6295 51.1829C23.2562 52.0563 22.0703 52.8125 19.5825 52.8125C17.0972 52.8125 15.9106 52.0581 14.5374 51.1829C12.9309 50.1575 11.2848 49.3738 9.375 49.1498V41.5625C9.375 37.2546 12.8796 33.75 17.1875 33.75H69.0625C73.3704 33.75 76.875 37.2546 76.875 41.5625V41.7188Z" fill="#0B6354"/>
</svg>
